<?xml version="1.0" encoding="utf-8"?>

<!DOCTYPE svg PUBLIC "-//W3C//DTD SVG 1.1//EN" "http://www.w3.org/Graphics/SVG/1.1/DTD/svg11.dtd">
<svg version="1.1" id="Layer_1" xmlns="http://www.w3.org/2000/svg" xmlns:xlink="http://www.w3.org/1999/xlink" x="0px" y="0px"
	 viewBox="401.5204 122.8404 2230.4797 1574.2825" enable-background="new 401.5204 122.8404 2230.4797 1574.2825"
	 xml:space="preserve">
<g>
	<path fill="#050404" d="M2590.4307,932.0382c-0.3201-5.8654-2.9272-8.5234-2.3398-14.1052
		c-0.0552-1.4919,1.1365-3.9078,1.0481-5.7952c-0.1816-3.8714-1.1826-6.785-4.7859-9.5456
		c-2.1973-1.6833-1.1775-3.4469-4.0251-4.7925c-2.5242-1.1929-5.3977-1.4438-7.8301-2.7056
		c-2.106-1.0904-4.1343-4.2474-6.1077-5.9153c-1.4077-3.7905-14.6841-3.5104-17.9475-3.6358
		c-4.8264-0.1842-6.8323,1.4326-10.8379,4.176c-0.0479-0.0762-0.0884-1.0366-0.0771-1.2825
		c-0.1296,0.1624-0.2595,0.3247-0.3892,0.4871c-0.9109-1.7745,0.5786-3.3173,1.1184-5.0948
		c0.7402-2.4374,0.1228-6.173,0.1514-8.7686c0.2373-1.673,1.3669-4.1255,1.4651-4.8178c0.1614-3.6525-0.0459-7.307-0.2026-10.9557
		c-0.1182-2.7516,1.2192-5.3514,1.0798-8.1354c2.2261-1.6073-0.0637-5.6708,0.6057-7.8297
		c-0.0332-3.4324,0.0728-8.8049,0.1401-12.8949c-1.54,0.2283-1.563-5.2462-2.4209-6.9045
		c-0.1736-1.1646-3.8308-8.7057-4.6191-8.3356c0.3254-0.1528-8.8457-7.7293-10.2632-8.3749
		c-1.9128-0.871-6.5471-2.7063-7.593-2.8633c-5.4268-0.8147-10.9016,0.7546-15.2378,0.7795
		c-3.1914,0.0184-3.7644-2.7287-4.3816-5.8989c-1.5291-3.959-3.0979-8.0701-4.4375-12.0381
		c-1.3694-4.0574-4.3362-7.5555-6.3723-11.2974c-2.5447-4.6763-5.4758-9.1604-8.9121-13.2331
		c-5.5371-6.5628-10.9746-12.139-18.2019-17.1348c-16.3967-11.3337-35.2583-16.3281-55.0259-17.2341
		c0.054-0.2908,0.1079-0.5815,0.1621-0.8723c-1.9084-0.268-3.8328-0.3665-5.759-0.3665c-4.9482,0-2.2334-2.8152-2.2646-5.4617
		c-0.0496-4.1747,0.6748-7.9637,0.6338-12.0958c-0.051-5.1498-0.0002-11.4128-0.0823-17.0287
		c-0.2988,0.0941-0.5977,0.1882-0.8962,0.2823c-0.0088-3.9576,0.1519-5.6563-0.8428-9.1563
		c-1.3279-4.6721-1.9663-9.8312-3.1919-14.6837c-0.3904-1.1166-1.4263-4.4623-3.0232-5.8394
		c-0.6108-3.8754-3.2949-6.4318-5.2505-9.1934c-3.4119-4.8181-5.8362-11.0923-11.7554-14.0225
		c-4.3901-3.694-8.9199-6.9317-13.8179-9.8373c-14.8203-8.7918-31.3286-13.7424-47.4397-17.2646
		c-8.158-1.7834-16.8462-4.5858-24.2917-4.4351c-1.8113,0.0367-3.6226,0.0748-5.4338,0.1132
		c-0.7131-2.1509-4.2534-1.2979-5.6741-0.5927c-2.4121,0.2181-3.4978,0.9065-6.1619-0.3402
		c0.1416-0.2318,0.283-0.4636,0.4246-0.6954c-12.0701-1.2287-22.5227-5.7475-34.3313-8.4328
		c-12.0938-2.7502-24.1228-3.0202-35.7048-4.5339c-16.2505-2.1239-33.1665-2.5723-49.2693-2.3001
		c0.073-0.2764,0.146-0.5527,0.219-0.8291c-14.1675-0.3956-28.6226-0.7638-42.7722-0.0357
		c0.0542-0.2789,0.1084-0.5577,0.1628-0.8366c-8.5317-0.1759-17.1167-0.2715-25.6472-0.0484
		c-8.4241,0.2203-14.4011-0.9622-22.6643-0.8199c-6.5234,0.1124-15.9081-1.4996-23.792-0.7786
		c-4.1208,0.3768-8.3916-0.0285-12.6011-0.1338c-4.9668-0.1242-10.1223,0.7663-15.0482,0.3184
		c-0.1398-0.0127,0.2323-0.8302-0.4042-0.9176c-2.0443-0.0629-4.0892-0.1018-6.1343-0.1232
		c-5.6517-0.0593-11.3037,0.011-16.9553,0.0587c-5.0254,0.0424-10.6658-0.7642-15.1039-0.8258
		c-8.6125-0.3173-15.9825-0.8931-25.1787-0.8536c-3.3386,0.0143-20.3213,2.1253-20.6061-1.4946
		c-2.7098-0.1655-5.42-0.0851-8.1292,0.0667c0.4233-1.73-11.2219-0.9933-13.265-0.9373c-4.5823,0.1255-4.0344-0.6026-6.188-4.1677
		c0.5278-3.6985,0.1587-7.4346,0.1437-11.1498c0.311,0.0651,0.6222,0.1303,0.9332,0.1954c-0.3013-3.2943-0.6671-5.848-1.1387-8.9315
		c-1.2065-0.7062-3.7965-1.468-3.6572-3.4155c-4.1233,1.2393-7.5485-1.6437-10.5721,2.754
		c-2.0779,3.0276-2.4385,7.4634-2.4211,11.1517c0.0188,3.9938,2.4193,8.924-1.6355,11.1901
		c-3.396,1.898-9.2672,0.7048-13.1847,0.7849c-0.6348,0.0571-2.4771,0.7397-4.3663,0.7377
		c-3.9814-0.0045-7.9686-0.0541-11.9502-0.0047c-2.8459,0.0353-5.7085,0.0947-8.5461,0.3232
		c-1.2748,0.1027-2.7142-0.7952-3.9542-1.116c-1.3733-0.3552-1.8934-1.3705-2.1885-1.4416c-3.264-0.7864-7.6187-0.1765-10.98-0.1746
		c-2.5593,0.0014-5.1187,0.0336-7.6771,0.1c-3.3,0.0858-2.3352-0.913-5.0656-1.6258c-1.2743-0.2766-2.5525-0.2889-3.8346-0.0371
		c-1.338-0.2883,0.5438-2.0571-1.5724-2.0571c-1.5712,0-3.0649,0.6002-4.2482,0.8562c-0.3185,1.0801-0.1489,0.4732-1.1298,1.0873
		c0.0702-2.0276,0.8701-4.1318,0.8315-7.1505c-0.0238-1.912-0.0485-3.826,0.0432-5.7369c2.3912-1.8632,5.005-3.4158,7.6023-4.9683
		c6.4382-3.8456,10.9476-7.4856,16.6857-11.2467c6.1055-4.0019,10.1057-8.3449,15.2133-13.3886
		c3.3444-3.3026,6.3325-8.1147,9.8901-10.7734c2.6372-1.9708,4.6827-6.8383,7.6583-7.6725
		c-0.0321,0.4084-0.0642,0.8168-0.0963,1.2253c1.5956-0.9639,3.4043-1.6614,4.8683-2.8282c1.9548-1.558,2.3741-6.9343,4.2841-7.6508
		c1.1648-2.9978,2.4055-3.406-1.0874-4.9914c-1.4729-2.6313-4.6113-3.9879-7.0259-5.5798c-0.2185,1.2982,0.55,0.8907-0.8849,1.8655
		c-0.0481-6.2124,1.6605-11.7279,1.3534-17.6785c-0.3324-6.4374,0.4668-15.3003-0.3838-22.6715
		c-0.3257-2.8211-1.3971-18.4623-6.8374-17.3264c-0.5861-1.0615-6.8081-2.255-7.1016-2.2981
		c-4.6652-0.6839-9.7914-0.0675-14.489,0.0185c0.0488,0.7779-5.5022,3.7545-6.6628,5.643
		c-1.5294,2.4884-2.1638,5.4509-2.5923,8.3009c-0.4462,2.9683-2.0409,4.4602-1.0004,7.6602
		c-1.9702,0.0332-0.964,21.5247-0.8408,24.4333c0.0939,2.2171,0.1813,4.1115-0.5002,6.2615
		c-2.1342-0.1463-4.2736-0.1965-6.4125-0.1965c-4.6128,0-9.2205,0.0071-13.8314,0.0071c-14.3114,0-29.8457-0.7301-45.2173-0.7301
		c-2.3108,0-4.6234-0.046-6.9272-0.2399c-3.7012-0.3115-2.3534-1.2683-3.8591-4.0083c-1.1971-2.1784-3.8795-1.9576-4.8368-3.2951
		c-1.4202-1.8085-1.7081-5.9478-2.9176-8.3789c-2.1401-4.3018-4.0607-8.6734-6.2363-13.1126
		c-9.9983-20.393-18.296-41.888-27.1268-62.8186c-3.1121-7.3763-5.9808-14.7234-9.3339-21.9568
		c-1.7216-3.7137-3.6561-7.1603-5.207-10.9522c-0.6927-1.6935-2.288-3.3765-2.6134-5.1804
		c-0.5286-2.9303,0.6475-2.9443,1.4396-5.3934c0.6964-2.1533-3.2432-7.8161-4.3501-9.8756
		c-1.896-3.5274,3.5981-5.9481,4.4681-10.1725c1.2245-2.5245,1.5525-0.2696,1.5905-4.1122
		c0.0295-3.0055-0.5142-7.3555-0.8577-9.3415c-2.1226-12.2715-8.0251-24.0402-12.766-35.789
		c-5.7698-14.2988-11.2714-28.3098-19.4733-41.2797c-5.7716-9.1267-14.7679-13.4517-24.0055-18.6664
		c-5.974-3.3723-14.9836-2.7331-21.6492-3.4838c-4.406-0.4959-8.8184-0.991-13.2526-1.1441
		c-3.4169-0.118-5.7679-1.3128-9.2848-0.8665c-3.621,0.4598-7.176-0.3981-10.8136-0.733c-3.5679-0.3284-7.0259-0.8856-10.88-0.8856
		c-3.293,0-5.7087-1.1199-8.9397-0.6427c-1.8462,0.2721-2.7761,0.2118-4.5143-0.1077c-3.0439-0.5597-6.152-0.4485-9.1104-0.9234
		c-2.0297-0.3258-4.6625-1.6379-6.5033-1.6379c-11.6658,0-23.8628-0.7225-35.5635-2.4706
		c-13.3182-1.9882-27.1414-1.446-40.4539-3.1123c-10.8751-1.3612-20.8221-2.9688-31.2825-2.9014
		c-7.8055-0.9285-15.8268-1.7795-23.65-1.577c0.0764-0.3,0.153-0.6001,0.2295-0.9002c-10.1465-0.9494-19.6979-1.1913-29.7789-2.2113
		c-1.9196-0.1942-2.7906-1.3963-4.6678-1.3963c-1.6479,0-2.7319,0.4673-4.3674,0.2832c-2.5992-0.2927-5.2135,0.2243-7.8208,0.1191
		c-5.5629-0.2246-12.0853-2.6371-17.5037-1.5813c-1.8706,0.3627-3.3408-1.2482-5.6898-0.9779
		c-1.7032,0.1968-2.2233,0.072-3.7827,0.0109c-2.901-0.1136-2.4946-0.8402-5.2885-0.8457c-2.0747-0.0041-4.1471,0.1134-6.217,0.2393
		c-1.397-0.1941-2.0679-1.1673-3.5115-1.1673c-4.7797,0-9.4573,0.5329-14.2892,0.1752c-2.0074-0.1486-3.765-0.4609-5.8469-0.8031
		c-1.4452-2.8843-7.3567-0.1191-9.6084-0.6172c0.0762-0.3173,0.1525-0.6347,0.2288-0.952
		c-9.4625-0.3847-18.8252-1.5621-28.2926-0.7766c-1.2953-4.1591-22.6987,1.4226-23.2119-3.2777
		c-3.6555,0.082-7.2592,0.2521-10.8651-0.1239c-3.86-0.4025-7.7562-0.866-11.6934-0.8738c-2.5193-0.005-5.8265,0.2269-8.6245,0.3942
		c-4.5018-1.302-9.2173-1.5611-13.8759-1.6708c-2.1927-0.0516-4.3861-0.0716-6.5782-0.151
		c-0.4912-0.9849-1.6245-1.1818-2.5938-1.1818c-2.3478,0-4.662,0.9968-7.0001,0.6063c0.0752-0.2973,0.1504-0.5946,0.2257-0.892
		c-1.4718-0.1368-2.9454-0.1923-4.4236-0.1923c-2.998,0-5.0605-1.6337-8.1923-0.4185c-2.2279-0.9613-4.8615-0.2115-7.1509-0.3232
		c-2.6208-0.1279-4.7661-0.8205-7.6368-0.8205c-2.0416,0-2.3241-1.0943-5.0101-0.7251c-0.9965,0.1367-2.353,0.3105-3.3286,0.2457
		c-2.3861-0.4558-4.7175-1.3711-7.1881-1.1437c-1.1177-2.0136-5.6935-0.5167-7.3411-1.4747
		c-1.8322-1.0652-4.5557,0.2405-6.5269,0.1224c-1.2142-0.0731-2.4285-0.1472-3.6427-0.2222
		c0.1266-2.5559,0.0155-5.1122,0.0078-7.6687c0.0085-3.3332-0.4884-8.8167-0.7417-10.8364
		c0.0017-1.6502,1.6571-14.9921-3.8181-10.8239c-4.4188,3.3639,2.4767,5.7293,0.4332,10.2359
		c0.2891-0.0678,0.578-0.1356,0.8669-0.2034c0.0063,6.0895-0.2343,12.3577,0.0458,18.4446
		c-0.9725-0.0235-9.6071,0.6912-9.6284-0.3512c0.0166,0.8098-9.4369-1.4684-10.9048-1.4684c-4.3439,0-8.7327,0.1167-13.1443,0.2178
		c-2.0333-0.2397-2.4886-1.0222-4.9835-0.746c-2.1334,0.2359-2.6737-0.7256-3.496-0.8111
		c-8.6445-0.4038-16.4026-1.168-25.0491-1.354c-4.4436-1.1726-8.819-1.2554-14.1597-0.8525
		c-1.0305-2.9955-8.289-0.3715-10.5225-1.2208c0.1225,0.3531,0.2449,0.7061,0.3674,1.0592
		c-12.6973-0.3998-23.9048,11.6463-25.7546,22.8311c-0.2283,6.7547,0.4306,12.0852,1.2918,17.5918
		c0.2758,1.7629,0.687,3.7957,2.0079,5.1191c-0.4808,1.8847,0.25,3.6825,0.9795,5.3749c1.5931,3.6966,1.9734,8.9648,4.6426,11.9841
		c-1.1095,3.7713,3.3875,3.2849-2.1334,4.8632c-3.0076-1.1101-6.3864,0.3036-9.2981,1.2391
		c-7.0363,2.2604-14.4646,2.5128-22.4518,3.4075c-5.7418,0.6432-10.2771,2.6214-16.1175,2.0054
		c-2.7726-0.2924-3.7738,1.1774-6.6222,1.0877c-5.7201-0.1802-11.4916-0.1456-17.214-0.0302
		c-4.5061,0.0924-9.0161-0.0762-13.5244-0.0203c-2.1044,0.0261-4.0125-1.3157-5.7857-0.9985
		c-10.0934,0.4794-20.2167,0.1184-30.3167,0.2083c-13.9448-0.2215-27.8368-0.649-41.7871-0.8036
		c-7.0495-0.0781-14.1726,0.3438-21.2344,0.0763c-2.1177-0.0802-4.1079-0.8932-7.1979-0.913
		c-3.2865-0.021-7.2541,0.8681-9.3451,0.8681c-5.6349,0-11.0214,2.5491-16.2045,2.54c-2.847-0.005-5.8558-0.1663-8.5231,0.6876
		c-6.2108,1.9883-13.2234,4.5231-19.8078,6.6062c-3.8289,1.2113-7.8013,2.7957-10.6021,5.7944
		c-1.3203,0.7051-1.7187,0.5886-3.2267,1.0567c-2.1306,0.6614-1.206,2.3479-3.1191,3.4948
		c-1.4219,0.8524-4.9243,3.6996-4.8295,5.6021c-3.3596,2.5471-6.4404,5.7543-8.1339,9.6693
		c-2.5208,2.8722-4.6001,5.844-7.617,8.1801c-1.8801,1.4559-5.3181,5.7592-6.3694,8.0748
		c-2.2267,4.9042-3.718,9.3649-5.2158,14.5245c-1.9289,6.6447-1.7813,12.4974-3.0022,19.2632
		c-0.5245,2.9066-2.3688,5.7897-1.9638,8.6826c0.3525,2.5181,2.118,7.3852-1.825,7.9559c-4.2385,0.6134-7.7095-0.8766-11.5969-1.036
		c-0.2471,6.2583,0.1144,13.1539,0.8207,18.2416c0.3724,2.6825,3.0814,11.8184,1.524,13.4057
		c-0.7074,1.4847-3.9685,4.9427-5.2328,6.6728c-3.6613,5.0102-7.4754,9.9066-11.343,14.7586
		c-6.8348,8.5747-14.0084,16.855-20.8694,25.404c-13.0781,16.2957-26.0081,32.6866-39.1473,48.9309
		c-4.1943,5.1855-11.5012,19.2718-19.0682,19.016c-3.1513-0.1065-20.6542-1.1239-20.7887,0.9008
		c-3.8193-0.2999-7.6508-0.1769-11.4765-0.1342c-3.3618,0.0375-4.3409,1.1121-8.116,0.8967
		c-4.2576-0.243-8.5671-0.1558-12.8322-0.1225c-1.4843,0.0116-7.4529-0.9994-6.9661,0.953
		c-2.6301-0.1728-14.3172-1.2375-14.4787,0.7989c-6.4908-1.5914-13.3282-0.8972-19.9527-0.8781
		c-1.9765,0.0057-10.8445,0.6274-10.5715,1.6812c-2.6862-0.193-14.8447-1.2823-15.2828,0.7618
		c-2.9909-0.429-5.8027,1.167-8.8271,0.7408c-0.3,1.644-10.5632,3.8633-12.7632,5.737c-3.193,1.5965-10.711,11.3592-6.7011,14.8127
		c0.9525,3.2473,4.2102,8.9576,7.7098,10.1396c3.0164,4.3439,9.7931,5.1091,13.3309,8.6159
		c2.2034,3.8683,10.4092,6.981,14.5959,8.001c5.6695,5.0098,12.8898,7.7982,18.7527,12.5479
		c3.1808,2.4597,6.2625,5.0849,9.5343,7.3372c2.6412,1.8182,5.7518,3.2834,8.4769,5.0707c1.4748,0.9672,6.4164,3.1038,7.1069,4.9359
		c-4.3891,2.2351-7.5953,6.1893-9.5358,10.6557c-0.564,2.2752-3.742,2.4914-4.8108,2.0055
		c-5.0098,0.6038-11.5207-0.72-15.0231,3.7355c-2.983,4.178-4.2039,8.5693-6.4817,12.871c-1.0338,1.9523-1.2372,4.2216-2.3022,6.16
		c-1.7809,0.9193-2.4398,3.4189-2.5008,5.249c-1.2627,5.0706-0.2158,10.7541-0.2451,15.9029
		c-0.0157,2.7628,0.2131,5.5177,0.2828,8.278c-0.2559,1.6443-0.9516,2.4392-1.3186,4.0622
		c-0.6985,3.096-4.4035,4.0125-7.0659,4.5494c-2.3588,0.4756-2.8364,2.953-5.5577,1.8366c0.078,0.2751,0.1559,0.5502,0.2339,0.8253
		c-1.5082,0.3223-5.9093,0.4579-6.9636,1.2083c-1.6221,1.1545-3.3342,4.9197-4.9706,6.5296
		c-0.4919,0.4837-9.5251,10.8757-4.2845,10.8757c0.6229,3.6174-1.7305,10.2717,0.1478,13.387
		c2.7313,4.5285,0.5619,8.072,1.0154,12.9949c0.0246,0.8647,0.429,1.4348,1.2131,1.7104c-0.0345,1.4474,0.0396,2.8893,0.2225,4.3259
		c-0.0436,2.0978-0.648,4.2032-0.5287,6.3004c0.1286,2.2614,1.4564,4.6998,1.6938,7.2866
		c0.3585,3.8958,0.1706,7.5338,0.2037,11.4534c0.0322,3.8123-0.0123,7.6234,0.0305,11.4377
		c0.0244,2.1783,0.9598,1.3478,0.7864,2.7849c-0.2129,1.7672,0.6252,2.9606,0.717,4.8953c0.1015,2.1417,1.1429,5.0986,1.3212,7.7357
		c0.3799,5.6185,0.9444,10.8413,1.2054,16.4625c0.1761,3.7941-2.6079,2.1724-2.426,4.0975
		c-0.8216,0.9777-1.5631,1.6282-1.088,3.0074c0.4333,1.2551,0.1783,2.4383,1.3837,3.4101c0.7376,0.5294,1.5334,0.9484,2.3873,1.2571
		c2.3709,0.9844,1.3549,3.519,1.7144,5.8441c0.3115,1.566,0.4211,3.1458,0.3289,4.7392c-0.4176,4.0014-0.6588,1.1564-2.9826,2.6528
		c-1.3289,0.8557-2.2045,1.4716-1.7808,3.2985c0.5038,2.1722,2.9068,2.8653,4.4054,4.1446
		c0.4307,2.5068,1.7527,6.0817,1.2231,8.3682c-0.5551,2.3961,0.8476,3.3342,0.8471,5.3592
		c-0.0005,2.0699-0.001,4.1398-0.0016,6.2098c-0.0008,3.1246,0.9517,7.0185,1.3011,11.0618
		c0.4427,5.1227,0.2237,10.021,0.4725,15.1497c0.2773-0.0754,0.5546-0.1509,0.8318-0.2264
		c-0.3194,2.5657-1.0759,16.7875,0.7716,16.8837c-0.3903,3.6352-0.1469,7.3178-0.1469,10.9687c0,1.6737,0,3.3474,0,5.0211
		c0,1.1857,0.8125,0.7749,0.8308,0.9681c0.3873,4.0899,0.1472,8.6255,0.1459,12.752c-0.2194,2.0654-0.5673,5.0236,1.4015,6.4474
		c-0.6894,1.6298-0.981,3.255-0.705,5.0029c2.0138-1.1686,3.7816,0.0705,5.5128,1.1263c-2.2249,1.9613-5.3568,2.1152-8.0838,1.8986
		c-2.5315-0.201-6.5497,6.4243-3.1482,8.6296c0.5581,4.3599,0.6508,6.8571,3.4105,10.4428c1.5575,2.0236,4.3922,2.5378,6.7426,1.836
		c3.1227,1.3654,6.5777,0.9845,9.8572,1.5692c4.4782,0.7983,9.6357,0.6242,13.9084,1.7098c5.218,2.8201,7.0471,0.598,8.148,7.6389
		c0.3133,2.0037,1.3555,4.6902,0.2307,6.621c-1.0839,1.8608-4.2331,1.7052-5.8531,3.9475
		c-2.4871,3.4426-0.003,9.5606-2.7701,11.7792c-1.0192,4.5754-1.0706,6.6636,0.2363,11.0125
		c0.5006,1.6656,3.2762,6.5987,0.5822,6.892c-1.7771,0.1904-2.6458,1.7695-4.5459,1.0156
		c-0.3767,2.2931-0.1794,6.1094-1.4872,7.5286c-0.0725,0.0787-1.2352,3.73-1.116,2.9924c-0.7646,4.7325,0.2543,8.3965,2.2171,12.534
		c2.1024,4.4318-3.8182,7.3889-3.8089,11.8254c0.0111,5.3204,0.0383,10.646-0.0025,16c2.4279,0.1733,4.8671,4.6315,5.4434,7.1322
		c-5.378,0.0507-6.2891,3.4662-4.6433,7.9502c0.5637,1.536,0.3324,3.1664-1.2631,3.33c-0.1783,0.851-0.3235,3.0341-0.0228,4.4625
		c0.4967,2.3596,1.5708,4.6405,3.3217,6.3309c2.116,2.0427,0.6506,3.0792-1.0797,5.1089c-0.9501,2.3988,0.0009,5.8875-0.7198,8.6919
		c0.0456,3.4149-0.7264,10.0581,3.1424,11.4854c2.3633,0.8719,4.3336-0.1887,4.6866,2.3668
		c0.4923,3.5636,1.0613,9.0111-4.399,6.4092c1.3207,2.7128-0.5034,8.0826,2.7636,9.6296c0.1007,1.4708,0.282,2.8728,0.2182,4.3478
		c0.2995,2.4388-2.2199,10.1875,2.677,10.1875c4.0656,0,6.5606,5.942,4.129,9.2134c-1.5376-3.2548-3.6466,0.2266-3.353,2.2268
		c0.4994,3.3971,2.2421,7.5903,3.1018,11.1825c0.9477,3.9595,1.8846,3.6854,5.61,4.2147c3.4963,0.4967,3.5263,8.766,1.0123,9.5332
		c-4.4531,1.3591,2.7637,17.1996,5.4128,18.9912c4.9022,2.1924,5.134,2.1089,7.2029,7.1166
		c0.7764,1.8793,1.7435,3.6837,2.3421,5.6344c0.8464,2.7579-1.3287,3.5831-3.2245,5.3364
		c-0.8801,1.9968,1.4775,6.8799,2.2708,8.8362c1.6967,4.1838,2.7299,5.8409,7.5137,6.473c5.8981,0.7798,5.1206,2.4042,1.7038,6.0459
		c-2.9595,3.1544,0.8661,8.3851,2.4596,11.3617c1.0122,1.891,3.5686,7.8656,5.5972,8.626c3.817,1.1844,5.7369-2.8712,9.0319,1.0121
		c3.0369,3.5791,2.1824,4.7594,0.0874,8.3041c-2.3743,4.0173,1.8455,6.9366,4.2021,9.8616
		c5.4457,6.759,11.3703,13.1118,16.8647,19.7891c5.1064,6.2057,6.2596,14.1871,13.3502,19.3726
		c3.525,2.5778,7.9424,3.7185,11.8645,5.5609c3.7185,1.7469,7.5023,3.9348,11.479,5.03c7.6505,0.1154,15.2354,5.2366,22.3074,7.2231
		c9.7308,2.7334,20.8124,3.441,30.4016,0.3872c10.2524-3.2651,19.3628-3.7813,30.328-5.6316
		c19.7327-3.3298,39.1136-8.7174,58.0416-14.8c9.5388-3.0658,17.9524-8.1144,27.0912-12.1311
		c8.1895-3.5994,16.7032-8.8685,23.6973-14.4448c6.7918-7.4315,17.6751-12.5503,22.1992-21.8346
		c1.9294-3.9597,3.1054-8.2188,4.4398-12.3998c1.3566-4.2509,4.9462-9.1971,4.948-13.6759
		c0.4734-1.3174,2.2313-4.3995,2.8228-6.2589c-0.0161,0.0505,1.3572-3.2805,1.3804-3.6749
		c0.1166-1.9806,1.4359-3.0935,1.4186-4.9247c-0.0227-2.3804-4.6926-2.2614-2.5083-4.8502
		c1.3409-1.5894,3.1821-4.0306,5.0161-4.2236c0.6725-2.9966,2.0943-5.1066,1.8403-8.5471
		c-0.2081-2.8191-0.7902-5.6447-0.1478-8.4503c-5.926-1.6929-0.5811-4.3711,1.8293-7.5758c1.8607-2.4738,2.3386-5.687,3.0461-8.4216
		c0.7634-2.9507-0.9497-5.9246,0.024-8.8738c-1.1212-0.1881-6.9108-3.5151-6.3162-4.177
		c3.1575-3.5149,6.7288-7.2876,10.1441-10.7194c3.407-3.4233,5.8822-4.402,7.4402-8.9131c0.7883-2.2825,3.6347-1.1191,5.402-1.1191
		c1.15-0.0146,2.3002-0.0203,3.4503-0.0168c0.3078,0.5078,0.6156,1.0157,0.9234,1.5237c2.5579,0.558,6.075,0.0376,8.0065-1.8348
		c2.269-2.1995,2.2957-3.0511,5.6466-4.3397c2.8365-1.0908,5.6981-2.1163,8.5793-3.0831c11.4138-3.8298,23.1777-6.521,34.7528-9.736
		c5.5134-1.5313,12.7612,1.0487,18.1334,2.413c6.7139,1.7048,13.4355,3.3538,20.1549,5.0276
		c8.9568,2.2312,19.8779,4.4197,27.6613,6.6112c13.0785,2.951,26.1292,6.0239,39.2121,8.9556
		c6.1727,1.3833,12.3524,2.7357,18.5447,4.0281c2.2323,2.0344,9.2227,2.4417,11.9961,2.2909
		c-0.4722,3.1259,47.4349,10.95,52.2805,12.1984c3.4349,0.7429,6.7083,1.4285,10.5592,2.3026
		c3.5898,0.8159,8.234,1.8536,11.8192,1.8536c1.6285,0,1.7007,1.0447,3.5276,1.0447c2.7622,0,4.2249-0.4551,7.0964,0.0729
		c2.3419,0.4307,5.9441,1.5713,8.0699,1.5713c2.3137-0.0021,4.778-0.823,6.8577-0.3705c2.9724,0.6469,4.6239,1.915,8.0447,1.6277
		c3.3782-0.2819,6.8499,0.0103,10.2362,0.0103c2.3804,0,3.4907-1.865,5.5925-1.6722c3.345,0.3066,3.9945-0.4635,6.4452-0.9801
		c5.6338,0.7946,10.7921-0.5396,15.9846-0.5396c1.8018,0,2.7999-1.1298,4.5773-0.9894c1.4744,0.1165,2.9352,0.4565,4.4193,0.4565
		c1.761,0,2.2833-1.0328,4.1454-1.0328c2.1814,0,4.3484-0.3022,6.4921-0.678c3.3478-0.587,6.7533-1.6372,10.1611-1.1246
		c4.3447,0.6515,9.5358-1.3097,13.9479-2.1804c4.9847-0.9838,9.9191-2.2129,14.8081-3.5927
		c2.4607-1.3713,4.7073-4.2108,6.9725-5.9742c7.6877-5.9849,16.3575-10.6843,25.5463-13.9159
		c4.2775-1.5044,8.6661-2.692,13.1179-3.5532c3.5769-0.692,8.0781-0.3647,11.4705-1.4875
		c2.9801-0.9863,18.9607-11.2109,20.7009-6.5879c0.3186,0.8466,13.3875,2.8687,15.1345,2.8687c3.3098,0,6.3979,0.8445,9.4989,0.8445
		c0.1376,0,1.7339,5.6344,1.7305,5.9569c-0.0215,2.0265,6.6235-1.0027,7.3811-1.4795c1.6464-1.0365,3.1859-2.2576,4.9323-3.1317
		c1.8469-0.1204,3.7489,0.6932,5.5842,0.2252c2.9121-0.7426,2.9222,0.2584,5.8759,0.2584c2.6444,0,5.2108-1.0226,7.8099-0.1696
		c-0.0907-0.3494-0.1814-0.6989-0.2721-1.0483c3.7919,0.3431,7.6001,0.0742,11.3965-0.0109
		c-0.0687,0.272-0.1375,0.5439-0.2062,0.8159c5.2893,0.3298,10.5881,0.1696,15.8771-0.083c2.469,3.176-1.8615,4.7502-4.3669,6.8871
		c-1.7782-0.5283-2.408,1.1484-3.89,0.6964c1.3717,10.8274-12.1766,20.4778-5.0114,31.5157
		c2.4111,3.7145,4.5493,5.3937,2.759,9.4574c-1.0381,2.3563,2.4706,6.7152-1.6929,4.9991
		c-0.7582-0.3141-3.2596-5.1508-4.3292-6.2054c-3.0608-3.0179-2.9834,0.9283-5.7728,1.3514c0.1921,3.3173,3.1166,7.7166,4.1,10.0802
		c0.585,2.1962,3.8955,6.7233-0.108,6.7233c-2.3206,0-5.9753-1.3127-7.7532,0.6467c-1.1653,1.2844-1.0328,8.3765-1.3219,10.3333
		c-0.6266,4.2415-3.2877,7.7948-3.7856,12.1719c-0.3142,2.7622-1.0375,10.5159-0.4021,12.8738
		c-0.3098,0.5159,0.1237,7.6835-1.4257,8.0267c-2.4968,0.5532,1.8771,13.3286-1.1663,12.7778
		c-0.4585,7.3712-1.2046,14.2017-1.6582,21.4022c-0.2947,4.6771,0.01,9.3599,0.0851,14.0383
		c0.0321,2.0015-0.0496,4.5228,0.6901,6.5889c0.9562,2.6705,0.7838,4.9548,0.7632,7.9929
		c-0.0222,3.2836-1.0576,9.0531,0.0468,12.1039c2.1078,5.8225,3.5463,15.7073,4.0211,21.2703
		c0.2574,3.0166-0.458,6.0448,0.7499,8.8912c0.5751,1.355,2.1818,6.6792,3.3385,7.3198c0.0636,4.2512,0.7758,8.1461,0.6654,12.3883
		c-0.0651,2.5029,0.5284,6.4565,0.8053,7.7813c-0.1392,0.9081,0.9838,3.8937,1.0977,4.7329c0.3431,2.5291,1.0624,4.984,1.778,7.426
		c1.4104,4.8116,2.2866,9.7467,3.6263,14.5814c2.9872,10.7802,6.9468,21.256,10.9691,31.6835
		c7.6963,19.9514,14.5936,39.423,24.7218,58.3237c8.8759,16.5637,19.6776,32.9374,30.9279,48.145
		c11.2709,15.2358,24.2677,28.873,36.0247,43.642c12.0007,15.0753,28.2712,26.6108,44.3015,37.1071
		c17.3512,11.3612,35.7194,23.3126,55.0219,31.0305c9.0198,3.6066,18.3356,6.3984,27.6755,9.0388
		c8.4214,1.6936,16.3459,5.0793,24.5566,6.8464c6.6594,1.4332,14.3619,5.5837,21.0681,4.7341
		c3.1777-0.4071,6.963,0.3639,9.9058,0.9386c1.2266,0.2396,2.5824,0.9844,4.197,1.1477c1.9331,0.1956,4.3396,1.0405,5.172,1.1683
		c7.9213,0.031,17.8746,0.0842,24.5048-0.7676c3.1869-0.0415,6.3705,0.0229,9.5574-0.0156
		c3.6863-0.0449,4.2963-0.6687,7.0342-1.1699c4.1671-0.7629,9.7484-2.7041,12.9949-3.6277c2.2278-0.6337,5.3972-1.389,6.6354-1.7009
		c3.0238-1.1665,8.7915-2.4138,11.934-2.4138c5.744,0,10.8607-2.9783,16.1354-4.8307c9.3494-3.2834,18.983-5.7687,28.2852-9.1716
		c9.3148-3.4077,17.0728-8.816,25.658-13.2168c7.057-3.6174,12.7628-8.5125,20.2188-11.1565
		c7.1793-2.5459,12.7332-7.234,19.2184-10.384c11.0305-5.3579,20.9634-12.4276,30.1768-21.0811
		c6.7909-1.7764,11.2025-9.1245,16.5961-13.2231c3.1812-2.4178,6.4565-4.9399,8.4014-8.5223
		c2.3386-1.5392,6.1332-4.8358,7.2609-7.4504c5.1691-3.4021,8.4269-8.9525,12.1355-13.7155
		c2.9918-3.8423,6.6948-7.9836,9.2914-11.9873c4.3981-6.7814,8.0131-14.147,12.3564-20.9937
		c4.0886-6.4451,10.1633-11.0481,13.2124-18.3239c2.4512-5.849,4.3259-12.0475,7.9613-17.4137
		c1.2295-1.7744,0.0836-3.4886-0.9747-4.9176c-1.4017-1.8955-0.0413-2.8445,1.3224-4.4445
		c2.2728-2.6691,3.4705-6.0588,5.4761-9.0048c3.9006-5.7296,5.4548-14.9004,6.6989-21.7261
		c0.3812-2.0917-0.0865-3.3589-2.2325-4.0677c-3.7758-1.2472,0.4767-5.2295,1.9908-7.5718
		c3.8397-5.9392,6.2321-11.6903,5.8724-18.2504c-0.2028-3.7483,0.6145-7.2443,1.0972-10.9579
		c0.5425-4.1731,0.9478-4.9711-1.2644-8.0596c-1.7788-2.4879-6.6824,1.3136-3.3901-3.9034
		c2.3954-3.7958,4.0543-7.9827,5.8589-12.0741c1.4006-3.1753,1.8538-2.6229,1.8572-7.1594
		c0.0027-3.6552-0.076-7.3099-0.0494-10.9652c-0.2793,0.0239-0.5586,0.0479-0.8378,0.0718c0.24-5.2545-0.7648-10.6306-0.7303-14.783
		c-0.0145-4.3138,3.0994-3.6525,6.8773-3.6525c13.2944,0,26.9-0.1904,40.1381-0.864c3.7571-0.6324,10.46-2.6918,15.3193-3.5555
		c3.46-0.6151,6.6902-1.4653,9.0112,1.4103c2.3638,2.9287,4.7935,5.8105,7.4143,8.5142
		c9.6575,9.9614,22.0093,14.6565,35.1582,18.104c15.1289,3.9666,30.1309,9.1848,45.8794,9.9717
		c2.3269,0.1163,3.1729,1.2546,5.1716,1.2546c2.5645,0,4.9771-1.0413,7.5435-0.5588c3.5547,0.5231,7.3528,0.9796,10.1321,1.0403
		c5.7581,0.1259,11.1409,0.1484,16.8787,0.603c1.8535,0.1467,2.8652,1.1067,4.4961,1.1067c1.8462,0,3.6194-0.6429,5.4661-0.3218
		c0.7466,0.0596,1.2407,0.9691,1.0737,0.9543c3.6479,0.3232,7.4609,0.0659,11.124,0.074c7.052,0.0155,14.104-0.0316,21.155-0.1415
		c-0.0857-0.2916-0.1714-0.5834-0.2571-0.875c1.5483-0.0566,6.8159,1.8434,7.2405-0.6733
		c4.6956-0.2335,9.3555-1.0526,13.8782-2.3259c2.8406-0.6942,5.7161-1.2822,8.5952-1.8772
		c2.8323-0.5852,6.0364-2.8064,8.9233-2.1091c1.6514-3.1505,10.3203-0.9275,11.8125-4.1055
		c6.8013-1.137,13.1243-4.3267,20.0295-4.9528c10.7888-2.4139,22.7478-10.6788,33.627-15.0836
		c3.6162-1.464,7.3918-3.4362,11.0205-5.3618c6.7451-3.5793,13.6882-7.6266,20.1292-11.7638
		c6.0569-3.8905,11.7742-8.2809,17.3345-12.8451c1.7375-1.4261,8.8909-7.5968,10.7729-6.9517
		c0.3018-2.7269,5.9199-7.0276,8.2883-9.1035c3.5566-3.1173,6.8389-7.4519,9.9561-11.0016
		c3.6074-4.3999,8.0483-8.0077,11.1101-12.467c2.9626-4.3151,7.7683-8.5974,10.0564-13.3176
		c1.9734-4.0709,6.3218-7.8199,8.0349-12.3005c1.9324-5.0535,4.4758-10.7474,7.5354-15.1479
		c3.1145-4.4792,6.3792-10.0885,8.198-14.8009c0.8384-4.132,2.7791-7.9121,4.0786-11.8977c0.1875-1.8568-0.9092-3.646-0.146-5.527
		c4.0398-0.4238,8.1038-22.0336,8.4373-25.5172c0.1958,0.0719,0.3916,0.1437,0.5874,0.2155
		c0.9116-2.7109-1.2693-3.5907-3.1975-4.6885c4.6335-4.85,12.9031-12.2604,8.9849-19.938c-1.6506-3.2341-0.5168-5.1992-3.0425-7.681
		c-1.2034-1.1824,0.0828-5.3192-1.1199-7.413c-0.9341-1.626-2.2432-2.464-3.1211-4.0424c2.4548-1.0464,1.3972-1.038,1.7092-3.2617
		c0.1538-1.0951,1.9253-7.8126,2.5891-7.8331c1.5457-0.0479,0.1768-11.6011-0.2461-12.8782
		c-3.3662-1.0059-8.0981-2.7598-11.9167-4.4475c3.3047-1.413,9.1243,1.7799,11.0278-1.4827
		c3.2097-5.5015-3.6067-4.8895-6.4221-5.276c2.137-2.3483,3.2815-8.9194,4.0916-11.9954c4.4639,0.6819,9.2275,1.5219,13.2805,3.0854
		c1.1638,0.3347,2.3354,0.3506,3.5146,0.0477c2.0974-0.4357,3.616,0.5264,5.7378,0.9042c3.5313,0.6287,8.2085,1.6975,11.76,1.6975
		c7.2004,0,11.125-1.317,17.0735-5.8694c5.061-1.9811,7.3503-7.5691,7.208-12.8336c2.1887,0.0464-0.3997-4.64,1.6824-5.6118
		c-0.5356-6.4553-1.4028-10.7996-4.5134-16.5763c-3.7385-6.9418-14.6277-8.563-21.4739-9.7994
		c1.9316-6.3352,6.1492-11.9161,8.1448-18.0673c0.9695-2.9879,0.0046-7.3154,3.814-6.9476
		c5.9143,0.5629,9.8811-2.5746,11.2063-8.4077c0.9624-4.2395,1.3867-4.9676,5.5818-5.3835
		c3.5852-0.3554,5.8914-3.4025,6.3184-6.7738c0.2527-1.9967-0.3806-5.1324,0.4912-6.8798c0.9978-2.0002,4.7952-2.387,6.145-4.3629
		c0.8506-1.2454-0.5525-2.1287-1.1321-3.2327c-1.3167-2.5082-2.4976,0.2486-2.3713-3.6988
		c0.0779-2.4384,0.9597-4.7539,1.4458-7.1187c0.864-4.2039-0.5854-4.6434,3.1257-6.6085c1.7764-0.9406,5.0042-2.2592,6.0503-4.0973
		c2.5886-4.5474,0.0823-13.9507,0.3928-19.0486C2591.5815,937.034,2590.4978,933.287,2590.4307,932.0382
		C2590.3674,930.8803,2590.5044,933.4077,2590.4307,932.0382z M2042.0521,1305.3743c-0.2993-0.4792-1.4948-2.1675-1.4707-2.1001
		c-3.7437-0.2847-7.076-0.0349-10.793,0.4579c-4.8926,0.6486-7.1802,1.6299-8.3461-3.5508
		c-2.2889-7.3025-2.1401-15.2542-4.4164-22.6813c-2.8591-2.59-8.5774,0.7188-12.4509-0.9727
		c3.0717-5.0326,4.5231-10.8062,6.2098-16.3954c2.3341-0.292,4.7013-0.627,6.885-1.552c2.1163-0.8965,4.1543-4.4691,6.3129-4.4691
		c6.5377,0,7.6995,4.2018,11.974,8.0693c4.0767,3.6882,9.8832,5.6451,15.3201,5.6451c-1.0139,2.6996-5.4635,5.8005-4.6266,9.0253
		c0.7468,2.8771,7.5155,7.4438,9.569,9.5851c3.4539,3.6016,4.7866,5.507,9.1833,7.5334c3.9482,1.8197,9.3713,5.9093,13.8337,5.421
		c-0.8323,1.3799-1.7188,2.724-2.6594,4.0323c-2.095,2.928-2.8403,1.9495-6.1538,2.1277
		c-3.7034,0.1992-7.6304,0.4327-11.3113,0.9081c-2.7703,0.1721-5.8037-1.156-8.3281,0.5527
		C2047.7108,1306.9424,2043.8767,1308.3029,2042.0521,1305.3743C2041.5643,1304.5934,2042.4921,1306.0803,2042.0521,1305.3743z
		 M511.7068,607.2184c0.7873-2.7766,2.8674-4.4962,5.2219-6.0423c4.6793-3.0718,5.8353-7.6912,8.937-12.0974
		c1.3014-1.8488,2.5001-6.4927,4.8399-5.644c4.6757,1.7028,9.2925,5.3315,12.8864,8.7435c2.3199,2.2025-1.8461,3.8378-3.3874,5.3496
		c-3.8943,3.8201-6.1747,8.7436-7.9915,13.8094c-0.6793,1.8939-2.5535,4.7242-1.3873,6.7706
		c1.0478,1.8383,4.5817,0.7456,3.658,3.3171c-1.6327,4.5451-7.6887,6.7868-9.4203,11.752c-0.8444,2.421-0.7358,5.0077-1.2965,7.6857
		c-0.9183,4.3866-9.3344,1.0903-12.4495,1.605c-5.6029,0.9257-10.9357,0.7576-16.6777,0.723
		c-0.4977-5.6688,1.6441-11.2319,2.3132-16.8439c0.4901-4.1104,1.7029-4.8533,4.2659-7.26
		C504.605,615.959,508.2236,608.724,511.7068,607.2184z M617.8769,477.8781c19.1873-26.8013,44.0497-49.2445,63.5422-75.7976
		c1.166,2.7468-4.4669,10.3372-5.9418,13.2921c-3.069,6.1483-4.9445,12.7223-7.8082,18.9354
		c-5.3976,11.7102-11.8195,23.1552-17.9293,34.509c-2.7324,5.0775-4.3987,11.0136-7.5627,15.7254
		c-1.4077,2.0963-4.3401,11.6415-6.5264,12.2772c-4.347,1.2639-10.0871,0.1407-14.6224,0.1035
		c-6.39-0.0525-12.78,0.0097-19.1696,0.0835C606.213,489.929,613.04,484.6346,617.8769,477.8781
		C619.4006,475.7497,615.9055,480.6319,617.8769,477.8781z M462.5448,523.2885c-2.2434-1.7154-6.4843-3.0941-2.4013-5.4751
		c1.2221-0.7126,2.4639-0.829,3.7473-1.2346c1.9003-0.6006,4.1966-1.2928,6.3114-1.8125c5.2809-1.3384,6.8865-0.2891,11.4589,1.6863
		c3.7747,1.6307,7.3903-3.6736,9.8376-0.1833c1.0589,1.5102,2.3898,2.7909,3.5571,4.2115c2.0086,2.4445-1.5357,4.4276-2.8827,6.9255
		c-0.3395,0.562-0.7246,1.2385-0.9731,1.7473c-0.9601,1.5456-1.6849,3.306-1.3445,5.172c-0.2569,2.0333,1.8851,3.9031,1.126,5.8768
		C481.7729,534.1285,472.36,528.3361,462.5448,523.2885C461.6769,522.6249,471.1976,527.7383,462.5448,523.2885z
		 M1019.5485,517.6755c-0.3524-1.5297-0.7005-3.2774-1.0964-4.8223c1.2617-0.2246,4.1578-1.4356,4.7786-0.1829
		c1.4698,2.9662,2.9696,4.4556,6.14,6.4301c6.214,3.8698,13.7587,6.7076,20.6625,9.1531c4.5189,2.1262,9.0912,4.1358,13.6376,6.2018
		c2.2057,1.0024,4.4056,2.0177,6.5906,3.0645c3.6348,1.7413,1.307,4.4689-0.1816,7.5196
		c-2.5923,5.313-5.8267,10.1245-8.0674,15.6749c-1.5179,3.7578-3.7366,7.0671-5.7739,10.5641
		c-0.5758,0.9883-3.7145,8.8956-5.1771,5.9089c-1.7684-3.6111-4.7939-7.0551-5.9479-10.9365
		c-1.1016-3.705-5.7003-6.5173-6.8779-10.626c-1.4463-4.6569-3.6206-9.0538-5.8002-13.4012
		c-1.7882-3.5669-3.6315-7.1654-5.5089-10.6912c-1.0618-1.994-2.2527-3.9312-3.7181-5.658
		C1021.1494,523.4482,1021.2056,520.5677,1019.5485,517.6755z M1663.1525,426.715c5.0376,11.239,10.5782,22.4277,14.9473,33.9945
		c-4.6532-2.5131-7.0557,4.9055-8.3096,7.5187c-1.7338-0.1821-0.8307-4.5603-2.9247-5.6501
		c-3.3053-1.7202-9.4742,0.2556-12.9619,0.4424c-8.379,0.4483-17.0695,1.7849-25.2355,3.7691
		c2.1322,5.0267-8.8296,9.5464-0.5753,12.0846c2.5916,0.7969,1.3208,3.9443,0.6829,6.0496
		c-4.9919,0.1964-9.7467,0.7367-14.7637,0.7625c-7.3768,0.038-14.7542,0.0016-22.1309,0.0181
		c-7.0389,0.0157-15.8414-8.0126-21.5994-12.1747c-0.2894,0.6677-0.1311,1.7899-1.2301,1.4478
		c2.5947-4.8909-0.3801,0.436,0.9939-0.9534c-1.6945-13.1023-14.2876-23.6277-26.834-26.3249
		c-4.5946-0.9556-9.2996-0.5198-13.9475-0.4264c-3.5604-2.4095-7.2673-4.5957-11.0574-6.6229
		c-8.256-5.4325-16.4253-11.2722-25.4504-15.3939c-0.9664-0.4414-2.089-0.5374-3.1759-0.6779
		c-3.3914-2.0781-3.8324-5.1887-8.181-4.773c-4.2401,0.4055-9.8204-4.4839-13.3829-6.6352
		c-4.9116-2.9659-9.8081-6.0041-14.7639-8.8776c-4.4432-2.5763-9.3278-4.757-13.6919-7.2246
		c-4.5129-2.5516-15.9142-5.1933-18.2178-9.2282c-3.0446,0.9288-8.9031-2.0782-11.2678-2.6856
		c-0.7125,6.3707,4.9766,8.679,9.8375,12.0493c9.3759,6.5004,19.1224,12.5199,28.5524,18.9674
		c9.4974,6.4937,19.3148,12.4917,28.7524,19.0615c5.1371,3.5761,10.282,7.1413,15.381,10.7718
		c3.4052,2.4244,9.6399,4.6572,11.7057,8.1967c-17.1461,5.8441-31.8679,16.3361-45.6259,27.6256
		c-2.8263,2.3192-5.1985,7.3367-8.8469,7.078c-4.3649-0.3096-8.7391-1.0344-13.1223-1.0344c-2.5449,0-5.4844,0.0164-7.4236,1.8014
		c-3.8013,1.9408-8.1942,0.8148-12.3665,0.8148c-18.3462,0-36.8081,0.7651-55.2123,0.7651c-3.9388,0-8.0243,0.5811-11.9994,0.8208
		c-4.6586-2.706-8.9895-5.9284-13.2595-9.201c-3.7205-2.8513-8.4691-5.496-11.3812-9.1611
		c-2.984-3.7556-5.8129-7.5756-9.0057-11.1415c0.2041-0.4934,2.1925-0.8339,2.8196-1.3106
		c1.1375-0.8648,1.4971-4.1014,1.0872-5.9604c-0.4359-1.9763-4.5253-7.3488-6.0759-7.3488
		c0.5881-0.6416,3.5934,0.0295,4.4335-0.1565c2.7614-0.6112,1.1925-3.8819,0.6592-5.3136
		c-1.5519-4.1652-5.7236-9.0381-6.7125-12.0825c-3.2761-1.0804-6.6447-0.3394-9.9398-0.9522
		c-2.4816-0.4615-2.5435-2.3321-2.4604-4.5125c0.1986-5.2003-3.9415-5.7043-5.4597-9.9013
		c-0.0393-9.785-3.4529-19.2363-5.7535-28.6434c-2.4587-10.0531-5.2982-20.0779-7.4181-30.1916
		c-1.7355-8.2798-5.6353-16.9422-9.3457-24.5219c-2.6542-5.422-5.187-11.1288,2.1473-5.8296
		c7.6198,5.959,18.9268,2.561,27.5128,2.2285c3.7734-0.1461,7.5564,0.059,11.3345,0.059c3.1642,0.2065,5.6013-0.7723,8.6012-0.7976
		c3.9481-0.0333,2.3976,3.4973,5.964,3.4973c1.0596,0,1.9923-0.2245,2.9956-0.2102c1.6013-0.08,6.3696,1.2137,6.4829-1.6419
		c0.1129-2.8483,1.3807-1.8435,4.119-1.8223c5.2214,0.101,10.2736-0.282,15.4703-0.5412c5.7239-0.2856,11.9076-0.837,17.5896-1.6465
		c3.2129-0.4578,5.0994-0.2831,7.6267-2.7346c1.2588-1.2209,2.2019-2.7379,2.6127-4.4523c1.8606-0.068,3.7075-0.0502,5.5684,0.0008
		c3.1727,0.0871,6.41,1.117,9.6283,1.117c5.2164,0,0.2286-9.157-0.1134-11.4858c9.1608-0.5282,18.996-1.6942,27.7689-3.8542
		c4.699-1.1569,10.011-1.3889,14.8079-2.0247c7.9166-1.0493,15.4399,0.4598,23.4208,0.7959
		c12.9922,0.5471,26.0959,2.0922,38.7535,3.8032c8.8313,1.1938,19.5989,2.5463,28.5242,1.8234
		c5.6399,0.2963,12.1478,1.2525,17.6661,0.8043c9.4794,1.327,20.3729,2.9474,29.9352,2.4283
		c2.0203-0.1111,3.9102,0.3098,5.9033,0.6043c1.5872-0.6783,2.2014-2.8627,4.1492-3.7235c0.5613-0.1802,3.6156,0.434,3.6227-0.3
		c0.0299-3.075,0.0615-6.1501,0.0861-9.2252c2.7659,0.3444,8.0571,0.6414,10.4508,1.5736c2.1675,0.422,4.1815,4.4303,2.3905,6.5139
		c-2.2098,3.3103-2.4402,7.4164-0.996,11.0779c2.7075,6.8647,8.8688,7.6294,13.514,12.1241
		c2.3398,2.264,3.0057,4.0287,3.5219,7.2767c0.5903,3.7223,3.1694,7.4534,4.7638,10.8466
		C1640.0186,374.1379,1651.249,400.5436,1663.1525,426.715z M2491.8684,932.9847c0.6125,4.0728-0.2717,10.1989-1.6301,14.0425
		c-1.7703,1.1082-7.2021-0.9444-8.8025-1.2521c-5.0244-0.9662-10.1365-1.2459-15.2407-1.2459
		c-5.5005,0-9.9143,2.5459-15.0447,3.9923c3.3999-4.8588,2.5198-14.6978,0.9463-20.1458
		c-1.6011-5.5432-4.365-10.6779-7.5017-15.4918c-1.7603-2.2338-4.7134-3.9825-6.5818-6.3255
		c8.8542-5.5216,17.5437-11.0825,26.9629-15.4277c4.7512-2.1918,9.0972-4.4643,14.0769-5.8637
		c5.3586-1.5059,11.1008-5.1172,16.6931-4.957c-0.158,7.5063-0.261,15.4171-1.3635,22.8571
		c-0.5281,3.5619-0.9729,7.4587-1.3479,11.0155c-0.7627,3.2579-0.4854,6.7754-0.5405,10.0938
		C2492.45,926.9131,2491.645,930.4442,2491.8684,932.9847C2492.3008,935.8594,2491.7898,932.0923,2491.8684,932.9847z
		 M1126.9698,382.3919c0.1786-5.4469-0.4076-6.4325,5.2151-6.0211c3.8816,0.284,9.9972-0.4088,13.1609,1.6698
		c1.968,1.293,3.1627,3.2506,1.0432,4.8576c-3.0309-0.1242-6.0089-0.1228-9.011-0.5663
		C1134.1522,381.8552,1129.7898,383.3781,1126.9698,382.3919C1127.0354,380.3932,1127.5526,382.5957,1126.9698,382.3919z
		 M1240.5278,379.7875c-1.2832,3.3543-3.8196,5.8321-5.718,8.8077c-2.2755,3.5666-3.0887,2.1713-6.8903,2.513
		c-2.1084,0.1895-2.4877,1.2794-4.8678,1.3373c-2.3169,0.0564-4.6331,0.1418-6.9479,0.2559
		c-2.7009,0.0049-5.3645-0.4364-8.0619-0.4364c-5.7708,0-11.995,2.3296-17.9922,1.2396c-4.2241-1.7465-7.9572-4.3713-11.942-6.5546
		c-4.3218-2.368-9.6431-3.5672-13.0559-7.3501c1.493,0.029,3.1194-0.1211,3.8175-1.7233c2.3225-0.5649,5.3965,0.0516,7.8231,0.0215
		c3.8125,0.5229,8.9147-0.1325,11.2267-3.6609c0.7225-2.8074,0.9087-8.9624,3.0723-10.8249c2.301-1.9809,4.9524-3.693,7.4365-5.4122
		c5.3145-1.5619,11.0048-6.8208,15.7318-9.7383c3.2831-2.0263,7.0913-3.3034,9.3401-6.6183
		c2.4218-1.8998,4.2223,2.6728,4.7964,4.1669c1.8235,4.7451,5.3201,8.8306,7.2675,13.6147
		c1.2423,3.779,1.7408,7.7638,3.1428,11.4953C1239.6063,373.3152,1242.5052,377.2745,1240.5278,379.7875z M1541.1968,477.0261
		c3.5789-4.0094-5.0177-11.1367-7.2638-13.4837c4.8781-1.3535,12.8011-0.7222,16.1482,3.0887
		c4.6359,5.2782,9.8428,12.0533,8.4716,19.2152c-1.9441,2.0442-9.953,0.679-12.0365,0.6531
		c-4.0042-0.0499-9.7559-1.2303-13.358,0.7008c-10.0149,1.1687-20.9402,1.0096-31.0619,0.9009
		c-3.4069-0.0366-10.2448,1.4474-13.2892,0.0996c-1.4202-0.6287-0.1561,0.2485-1.5447-2.1805
		c-0.9797-1.7139-4.1633,1.6894-6.4233,0.8023c0.1372-3.3677,7.4971-6.3513,10.0916-8.0964
		c6.27-4.2174,12.3091-6.9677,19.1743-9.7864c6.0343-2.4776,10.3566-5.1864,16.1965-0.8532
		C1528.3873,469.634,1538.4569,480.0945,1541.1968,477.0261C1541.9534,476.1785,1540.853,477.4111,1541.1968,477.0261z
		 M1089.3733,546.6706c-0.4388,3.1808-1.933,4.1429-0.141,7.4865c0.8981,1.6758-1.1206,6.6562,2.8787,5.173
		c1.3846-0.5135,3.462-1.8323,4.9194-0.9214c2.2676,2.0341,1.1469,8.6536,1.2366,11.7804
		c0.1425,4.9647,0.2922,9.2186-2.0283,13.5515c-2.7111,5.4247-9.3959,20.0159-16.1616,20.0683
		c-3.8802,0.0301-8.5604,0.7784-10.2239-3.4149c-0.3984-1.0043-1.436-2.2888-2.6884-1.6223
		c-0.6825-1.2024-1.0177-2.2396-2.0538-3.2391c-2.3357-2.2532-7.6464-6.5374-4.7596-9.8452
		c1.4746-1.6893,2.5266-3.7349,3.5382-5.7181c1.7638-3.4578,3.6696-9.9359,7.551-10.5913c4.5886-0.7749,0.6891-6.0959,2.0288-8.6493
		c2.1283-4.0565,3.5214-8.6771,5.4896-12.8469c0.8499-1.8015,1.7089-3.6152,2.8337-5.2665
		C1084.4607,543.6804,1086.9795,545.0895,1089.3733,546.6706C1089.323,547.0354,1086.7201,544.9182,1089.3733,546.6706z
		 M509.9978,538.5715c-1.8791-1.4454-5.4641-2.5967-5.8661-4.9197c0.8656-4.774,3.5587-4.0628,8.2794-5.0536
		c3.9781-0.835,7.7802-1.1484,11.8193-1.2496c3.7766-0.0946,3.8256,4.5012,7.7267,4.5012c5.8954,0,12.1301-0.1506,18.0552-0.5654
		c4.7264-0.3308,9.4417-1.7177,14.1786-1.5621c5.7682,0.1895,7.3057-0.4489,2.7803,4.3617
		c-5.8156,6.1822-10.5543,13.6743-16.5391,19.5194c-3.366,3.2875-6.2749,4.5626-10.5458,2.118
		C529.9772,550.0496,520.3481,543.4348,509.9978,538.5715C508.0133,537.045,511.3625,539.2128,509.9978,538.5715z
		 M584.6459,528.2987c2.8014,0,6.0209-1.3307,8.759-0.4251c-2.9948,2.1006-1.812,3.9218-5.2139,5.6479
		c-1.381,0.8338-2.8849,1.5724-4.2643,2.4556c-3.761,2.4079-16.2701,9.6125-12.8749,14.9179
		c0.6065-0.191-0.5756-1.2592,0.6957-0.0245c-5.0806,4.0184-10.7742,6.3723-15.2733,11.1934
		c-2.4816,2.6592-3.6033,1.0173-6.4479-0.5834c-2.0036-1.1274-2.184-1.627-0.1666-3.0698c2.0765-1.4848,3.4443-4.6134,5.1406-6.6367
		c5.6151-6.6973,10.9926-13.9093,16.7689-20.3779C575.8631,526.8115,578.7013,528.2987,584.6459,528.2987z M715.5839,452.6287
		c1.379-1.1679,2.1232,10.2748,2.3231,11.9476c0.4217,3.529,2.0695,8.7113,1.9443,12.2305
		c-0.185,5.2028,0.7941,10.3933,0.6018,15.3009c-8.3063-0.3984-16.7101,0.926-24.9547-0.5614
		C701.9485,478.4472,709.975,466.1429,715.5839,452.6287C715.9787,452.2943,712.1749,460.8426,715.5839,452.6287z
		 M1778.0917,560.4532c-2.2371,1.2556-4.5955,3.2544-7.2904,2.3848c-2.6237-0.8466-2.4661-3.7687-3.3542-6.9183
		c-0.7811-2.7698-2.3428-5.2672,1.2145-5.1918c4.9307,0.1045,9.868,0.0124,14.7991-0.0035c2.975-0.0096,2.2618,3.6829,0.1257,4.4545
		C1781.0874,556.0817,1779.3705,558.2246,1778.0917,560.4532C1777.2266,560.9387,1779.4067,558.1614,1778.0917,560.4532z
		 M775.0272,328.8485c9.0974-3.8696,18.6171-6.9998,28.0604-9.9546c2.209-0.6912,10.3839-4.1934,11.0117-0.2416
		c0.2615,1.6456-0.4908,3.3365-0.6733,4.9462c-1.6134,2.799-0.2111,5.3087-0.6638,8.2652c-1.2701,8.311,1.8754,19.5458,7.165,26.148
		c3.4022,5.0001,8.8821,12.9423,14.8714,14.6072c15.9675,1.2366,31.9272-0.3011,47.8734,0.4361
		c6.4464,0.3007,13.0209,0.1872,19.4087,0.1326c5.7582-0.0492,11.8771,0.9103,17.4625-1.0057
		c-0.1696-0.0395-0.3391-0.0789-0.5085-0.1184c8.6075-5.9935,6.4065-22.1526,7.4832-31.0031
		c0.6851-5.6461,0.8248-11.4165,1.3503-17.0927c0.5735-6.1954-0.2969-9.5763-2.9017-14.6876
		c-2.0096-3.9434,6.2763-2.018,8.3369-1.9473c4.8326,0.1659,10.0858-0.046,15.0544-0.0279
		c11.6865,0.0424,23.2778,0.7278,34.9603,0.8268c-3.8179,3.4857,3.6196,2.8882,5.3773,1.5211
		c3.7011-1.1559,5.9357-0.7704,10.5103-0.7704c3.2131,0,6.4271,0.0203,9.6403-0.0182c1.2626-0.0149,2.525-0.0384,3.7872-0.0705
		c0.7009,0.2246,2.9421,2.0189,1.9749,1.7093c4.3378,1.3885,8.6641,0.3475,13.1312,0.9816
		c7.548,1.0714,11.8192,5.7766,18.2916,9.6521c4.9407,2.9584,4.8573,7.2963,5.9794,12.459
		c3.5636,16.3961,8.7736,32.3618,12.0704,48.8638c0.7632,3.8203-3.7539,4.6496-6.1432,7.5512
		c-1.7397,2.0336-3.2157,4.5272-4.6012,6.8137c-2.3546,3.8855-2.3542,9.999-2.4823,14.4858
		c-0.2104,7.3674-0.1654,14.8726-0.15,22.168c0.0089,4.2588,0.9542,8.5184,0.8984,12.7216
		c-0.1394,10.5019,0.1569,20.9761,0.5575,31.4551c0.4359,11.4033,3.5989,22.7008,10.5591,32.0299
		c-3.2416,0.0089-9.016-2.7733-12.0758-3.5862c-6.8669-1.8243-13.5681-3.6697-20.6926-4.2523
		c-4.0177-0.3285-7.9128-1.3457-11.952-1.5796c-1.5546-0.09-4.0664,0.6795-4.8448-0.8281c-0.918-1.9839-1.7992-3.986-2.5965-6.0218
		c-1.0569-2.6989-1.8015-5.4897-2.79-8.209c-1.5342-4.2203-3.4819-8.4553-6.4138-11.9575
		c-5.5696-6.6528-13.7961-6.8574-21.8921-6.8574c-3.939-0.0146-8.3516-0.6492-12.2755,0.2148
		c-1.2114,0.2667-8.787,0.6372-4.3993-1.9921c1.3608-0.8155,2.9603-1.0929,4.428-1.6414c2.4175-0.9033,3.8641-3.0188,5.9167-4.4759
		c6.4182-4.5563,10.2634-7.2804,10.9327-16.0525c0.2734-3.5833-0.322-7.1273-0.1042-10.6974
		c0.2552-4.2003-1.965-7.8075-1.6618-11.8703c0.6171-8.2894-2.2766-17.7971-4.8768-25.5969
		c-2.1833-6.5492-4.3881-14.6656-11.201-17.191c-4.3102-1.5977-10.8053-0.7384-15.233-0.7042
		c-8.9006,0.0688-18.1801,0.0243-26.8625,0.0098c-14.4755-0.0242-29.3193,1.4251-44.1353,1.6469
		c-10.2368-0.0637-25.6482-2.1045-33.7229,5.7561c-8.0726,7.8586-10.226,21.8691-12.7542,32.469
		c-2.4304,10.1893-6.0815,20.5781-6.8918,31.1189c-1.1163,14.5212,3.7458,18.7148,15.9011,24.864
		c-11.7772,2.1655-25.9058,2.0244-32.2063,14.2644c-2.2048,2.2249-2.4363,3.1373-5.8175,3.1674
		c-4.246,0.0379-8.4923,0.048-12.7385,0.0254c-3.5835-0.0191-2.3831-1.8977-5.2072-3.045c-2.712,0.0142-3.8768,1.0836-4.8162-1.7245
		c-1.1904-5.8585-1.3809-11.9204-3.4078-17.5936c-0.4595-2.3188-3.8826-12.4561-2.1737-13.99
		c4.4523-3.9961,3.327-8.2031-2.087-13.1402c-2.0082-1.8314-3.4331-4.0939-5.4547-5.818c-3.5613-3.0373-2.334-3.5179-3.3367-7.7482
		c-1.4148-5.9691-3.5631-11.8781-4.9297-17.8955c-1.0788-4.7499,0.9791-10.3622-1.2807-15.0945
		c1.2478-3.4251-1.3257-8.3058-1.6146-12.0911c-0.3553-4.6548,0.6375-9.4064-0.0815-14.0201
		c-0.6104-3.9168-3.1951-7.5326-3.2693-11.5375c0.8964-1.9989,1.2736-4.5246-0.9247-5.8282
		c-0.732-2.5757,0.8762-7.6816,1.2177-10.6996C760.8009,334.547,767.6556,331.9846,775.0272,328.8485
		C778.1758,327.5092,771.4014,330.391,775.0272,328.8485z M1111.5913,209.9268c0.7185,4.2507,1.1891,9.2552,1.019,13.5823
		c-0.1075,2.7418,2.1759,9.5097,0.708,12.0701c-1.668-2.0981-4.5029-1.2101-6.9213-1.2405
		c-7.7578-0.0974-15.5146-0.2698-23.2731-0.303c-9.9708-0.0426-21.6313,0.0937-30.6019,1.432
		c-4.9448,1.2946-11.6824,1.9215-16.7653,2.1891c-3.0955,0.1629-14.5851,2.7473-16.3719-0.9486
		c-3.2595-9.4538-9.614-16.7819-9.6411-27.4804c-0.0093-3.6577-0.0742-7.3152-0.1957-10.9709
		c0.4346-2.0521,2.5613-3.2047,4.1001-4.5586c3.1153-2.7412,9.6473-0.5935,13.7335-0.4836
		c11.1105,0.2988,22.3661,1.5357,33.3573,2.8908c8.3022,1.0235,16.8064,1.7107,25.1541,1.7606
		c5.7534,0.1868,11.3827,0.7961,17.0925,1.4044c2.0577,0.2192,6.6644-0.791,8.1971,0.7646
		C1111.2177,203.3322,1110.6531,206.6966,1111.5913,209.9268z M1120.2716,200.1866c8.483,0.5288,16.6332,2.7424,25.1138,2.6318
		c6.4928-0.0879,13.1251,0.2924,19.5416,1.0546c9.7344,1.1563,19.5487,2.1874,29.1967,2.9158
		c5.5079,0.4159,10.9601-0.4038,16.4078,0.5283c13.741,2.351,28.7069,1.922,42.5205,2.6468
		c15.9249,0.8356,31.5399,3.4273,47.4126,3.1554c12.5221,1.2732,25.5298,2.233,38.5281,2.6467
		c12.0203,0.3825,24.1038,1.1075,36.1298,2.1711c6.4139,0.5673,12.6837,1.2188,19.0468,2.2246
		c4.2655,0.6743,8.7452,0.244,13.068,0.6045c3.7843,0.3156,9.3599,2.7374,12.8856,1.126
		c10.0859,0.5942,20.1581,1.4704,30.1758,2.7937c3.9387,0.4919,7.7089,0.7298,11.6943,0.4419
		c3.2845,0.464,6.4288,1.4003,9.7523,1.62c18.9017,1.2493,37.6958,3.061,56.5447,4.0439c17.1904,0,34.1154,4.2509,51.2643,4.1685
		c2.304-0.012,4.6079-0.0275,6.9119-0.044c2.4694-0.0177,4.3369,1.7173,6.7754,1.1078c5.1143-1.2784,10.9901,0.2661,16.2196,0.7681
		c5.0524,0.7628,10.2966-0.3151,15.1987,1.308c5.2163,1.7271,9.4679,5.4908,13.235,9.3574
		c8.7084,8.9382,12.3909,21.013,16.8228,32.3642c2.5525,6.5374,5.3955,12.9552,8.1471,19.4098
		c1.3263,3.1111,2.6318,6.2314,3.8726,9.3778c1.2948,3.2831,0.4576,6.3784,1.0726,9.8308c-3.2898-1.1078-3.1465,0.374-5.2513-2.9246
		c-2.1505-3.3701-3.2297-7.3543-5.8229-10.5749c-1.9431-3.2517-3.723-6.2396-5.6802-9.3332
		c-0.6899-4.196-6.2155-6.657-6.4113-10.7323c1.9706,0.1151,4.0157,3.2758,6.1038,2.2196c1.6379-0.8286,1.0233-5.7779,0.0525-6.7481
		c0.0771,0.077-3.759-0.6763-4.028-0.8157c-1.8088-0.9373-3.3226-2.3392-4.9728-3.5106c-1.2311-0.874-3.1497-1.8329-4.2322-2.451
		c-6.3225-3.61-11.9164-7.67-19.5874-9.1083c-12.2838-2.3572-27.5018-0.5618-39.8934-0.5618
		c-17.8745,0.0051-35.8552-3.0703-53.6157-5.3332c-5.5288-0.7044-11.0686-1.7452-16.6395-2.3727
		c-4.3041-0.4848-8.0178-0.7311-12.2107-1.1817c-4.0219-0.4841-7.7241-0.2842-11.7849-0.8433
		c-14.0344-1.932-27.7308-4.1102-41.9955-3.9169c-5.5419,0.0751-11.0375-1.1026-16.5046-0.9813
		c-4.0758,0.0904-8.1312-0.9599-12.2626-0.7477c-2.5691,0.1319-5.0802,0.7993-7.5056,0.8693
		c-11.5176,0.3322-22.916-0.2052-34.3789,0.0717c-11.2089,0.2707-22.4403-1.2488-33.6584-1.7123
		c-6.6104-0.2731-13.0614-0.9078-19.7119-0.5671c-4.2001-0.8708-8.1512-1.7206-12.4655-1.7998
		c-12.5515,0-24.8296-0.554-37.3557-2.2224c-4.5315-0.6036-9.1354,0.2079-13.6724-0.043c-6.4811-0.7184-13.3964-1.723-19.9011-1.723
		c-5.9277,0-11.6787-0.8821-17.5886-0.8821c-7.8704,0-15.0338,0.2294-22.7517-1.6644c-5.7971-1.4225-13.537-0.7458-19.5394-0.6402
		c-3.733,0.0657-7.4678-0.0384-11.201-0.0298c-2.6134,0.0061-5.2268,0.0322-7.8396,0.0859
		c-1.6936-0.2285-2.5316-1.4123-4.4169-1.2432c-8.0515,0.7221-16.1721-1.5529-24.3334-1.2876
		c-1.704,0.0554-7.6794,1.0912-8.9723,0.0397c-1.0033-0.8159-1.2662-8.3734-1.5593-10.359
		c-1.251-8.4784-1.1938-17.1023-2.1499-25.6568C1116.1364,199.9249,1118.204,200.0575,1120.2716,200.1866
		C1124.6654,200.4605,1118.2374,200.0596,1120.2716,200.1866z M2546.5706,1069.9464c-6.2339,1.4698-13.7937-4.4788-11.917-11.2294
		c1.3735-4.9409,7.4585-4.0167,9.8918-0.7335C2547.9153,1062.5303,2549.4189,1064.9896,2546.5706,1069.9464z"/>
</g>
</svg>
